<?xml version="1.0" encoding="UTF-8"?>
<svg version="1.1" xmlns="http://www.w3.org/2000/svg" width="513" height="513">
<path d="M0 0 C35.64 0 71.28 0 108 0 C108 8.91 108 17.82 108 27 C116.91 27 125.82 27 135 27 C135 35.91 135 44.82 135 54 C143.91 54 152.82 54 162 54 C162 45.09 162 36.18 162 27 C170.91 27 179.82 27 189 27 C189 18.09 189 9.18 189 0 C224.64 0 260.28 0 297 0 C297 8.91 297 17.82 297 27 C305.91 27 314.82 27 324 27 C324 35.91 324 44.82 324 54 C332.91 54 341.82 54 351 54 C351 62.91 351 71.82 351 81 C359.91 81 368.82 81 378 81 C378 107.73 378 134.46 378 162 C369.09 162 360.18 162 351 162 C351 170.91 351 179.82 351 189 C342.09 189 333.18 189 324 189 C324 197.91 324 206.82 324 216 C332.91 216 341.82 216 351 216 C351 224.91 351 233.82 351 243 C359.91 243 368.82 243 378 243 C378 269.73 378 296.46 378 324 C369.09 324 360.18 324 351 324 C351 332.91 351 341.82 351 351 C342.09 351 333.18 351 324 351 C324 359.91 324 368.82 324 378 C315.09 378 306.18 378 297 378 C297 386.91 297 395.82 297 405 C270.27 405 243.54 405 216 405 C216 422.82 216 440.64 216 459 C207.09 459 198.18 459 189 459 C189 467.91 189 476.82 189 486 C180.09 486 171.18 486 162 486 C162 494.91 162 503.82 162 513 C117.45 513 72.9 513 27 513 C27 504.09 27 495.18 27 486 C18.09 486 9.18 486 0 486 C0 468.18 0 450.36 0 432 C8.91 432 17.82 432 27 432 C27 423.09 27 414.18 27 405 C18.09 405 9.18 405 0 405 C0 396.09 0 387.18 0 378 C-8.91 378 -17.82 378 -27 378 C-27 369.09 -27 360.18 -27 351 C-35.91 351 -44.82 351 -54 351 C-54 342.09 -54 333.18 -54 324 C-62.91 324 -71.82 324 -81 324 C-81 297.27 -81 270.54 -81 243 C-72.09 243 -63.18 243 -54 243 C-54 234.09 -54 225.18 -54 216 C-45.09 216 -36.18 216 -27 216 C-27 207.09 -27 198.18 -27 189 C-35.91 189 -44.82 189 -54 189 C-54 180.09 -54 171.18 -54 162 C-62.91 162 -71.82 162 -81 162 C-81 135.27 -81 108.54 -81 81 C-72.09 81 -63.18 81 -54 81 C-54 72.09 -54 63.18 -54 54 C-45.09 54 -36.18 54 -27 54 C-27 45.09 -27 36.18 -27 27 C-18.09 27 -9.18 27 0 27 C0 18.09 0 9.18 0 0 Z " fill="#23CE6B" transform="translate(108,0)"/>
<path d="M0 0 C17.82 0 35.64 0 54 0 C54 8.91 54 17.82 54 27 C62.91 27 71.82 27 81 27 C81 35.91 81 44.82 81 54 C107.73 54 134.46 54 162 54 C162 45.09 162 36.18 162 27 C170.91 27 179.82 27 189 27 C189 18.09 189 9.18 189 0 C206.82 0 224.64 0 243 0 C243 8.91 243 17.82 243 27 C251.91 27 260.82 27 270 27 C270 35.91 270 44.82 270 54 C261.09 54 252.18 54 243 54 C243 62.91 243 71.82 243 81 C234.09 81 225.18 81 216 81 C216 107.73 216 134.46 216 162 C224.91 162 233.82 162 243 162 C243 170.91 243 179.82 243 189 C251.91 189 260.82 189 270 189 C270 197.91 270 206.82 270 216 C261.09 216 252.18 216 243 216 C243 224.91 243 233.82 243 243 C225.18 243 207.36 243 189 243 C189 234.09 189 225.18 189 216 C144.45 216 99.9 216 54 216 C54 224.91 54 233.82 54 243 C36.18 243 18.36 243 0 243 C0 234.09 0 225.18 0 216 C-8.91 216 -17.82 216 -27 216 C-27 207.09 -27 198.18 -27 189 C-18.09 189 -9.18 189 0 189 C0 180.09 0 171.18 0 162 C8.91 162 17.82 162 27 162 C27 135.27 27 108.54 27 81 C18.09 81 9.18 81 0 81 C0 72.09 0 63.18 0 54 C-8.91 54 -17.82 54 -27 54 C-27 45.09 -27 36.18 -27 27 C-18.09 27 -9.18 27 0 27 C0 18.09 0 9.18 0 0 Z " fill="#1B9D51" transform="translate(135,81)"/>
<path d="M0 0 C35.64 0 71.28 0 108 0 C108 8.91 108 17.82 108 27 C116.91 27 125.82 27 135 27 C135 35.91 135 44.82 135 54 C143.91 54 152.82 54 162 54 C162 45.09 162 36.18 162 27 C170.91 27 179.82 27 189 27 C189 18.09 189 9.18 189 0 C224.64 0 260.28 0 297 0 C297 8.91 297 17.82 297 27 C305.91 27 314.82 27 324 27 C324 35.91 324 44.82 324 54 C332.91 54 341.82 54 351 54 C351 62.91 351 71.82 351 81 C359.91 81 368.82 81 378 81 C378 107.73 378 134.46 378 162 C360.18 162 342.36 162 324 162 C324 135.27 324 108.54 324 81 C315.09 81 306.18 81 297 81 C297 72.09 297 63.18 297 54 C261.36 54 225.72 54 189 54 C189 62.91 189 71.82 189 81 C180.09 81 171.18 81 162 81 C162 89.91 162 98.82 162 108 C153.09 108 144.18 108 135 108 C135 99.09 135 90.18 135 81 C126.09 81 117.18 81 108 81 C108 72.09 108 63.18 108 54 C72.36 54 36.72 54 0 54 C0 62.91 0 71.82 0 81 C-8.91 81 -17.82 81 -27 81 C-27 107.73 -27 134.46 -27 162 C-18.09 162 -9.18 162 0 162 C0 170.91 0 179.82 0 189 C8.91 189 17.82 189 27 189 C27 197.91 27 206.82 27 216 C18.09 216 9.18 216 0 216 C0 224.91 0 233.82 0 243 C-8.91 243 -17.82 243 -27 243 C-27 269.73 -27 296.46 -27 324 C-18.09 324 -9.18 324 0 324 C0 341.82 0 359.64 0 378 C-8.91 378 -17.82 378 -27 378 C-27 369.09 -27 360.18 -27 351 C-35.91 351 -44.82 351 -54 351 C-54 342.09 -54 333.18 -54 324 C-62.91 324 -71.82 324 -81 324 C-81 297.27 -81 270.54 -81 243 C-72.09 243 -63.18 243 -54 243 C-54 234.09 -54 225.18 -54 216 C-45.09 216 -36.18 216 -27 216 C-27 207.09 -27 198.18 -27 189 C-35.91 189 -44.82 189 -54 189 C-54 180.09 -54 171.18 -54 162 C-62.91 162 -71.82 162 -81 162 C-81 135.27 -81 108.54 -81 81 C-72.09 81 -63.18 81 -54 81 C-54 72.09 -54 63.18 -54 54 C-45.09 54 -36.18 54 -27 54 C-27 45.09 -27 36.18 -27 27 C-18.09 27 -9.18 27 0 27 C0 18.09 0 9.18 0 0 Z " fill="#0B0A07" transform="translate(108,0)"/>
<path d="M0 0 C35.64 0 71.28 0 108 0 C108 8.91 108 17.82 108 27 C90.18 27 72.36 27 54 27 C54 44.82 54 62.64 54 81 C89.64 81 125.28 81 162 81 C162 98.82 162 116.64 162 135 C117.45 135 72.9 135 27 135 C27 126.09 27 117.18 27 108 C18.09 108 9.18 108 0 108 C0 90.18 0 72.36 0 54 C8.91 54 17.82 54 27 54 C27 45.09 27 36.18 27 27 C18.09 27 9.18 27 0 27 C0 18.09 0 9.18 0 0 Z " fill="#0B0A07" transform="translate(108,378)"/>
<path d="M0 0 C8.91 0 17.82 0 27 0 C27 8.91 27 17.82 27 27 C62.64 27 98.28 27 135 27 C135 44.82 135 62.64 135 81 C108.27 81 81.54 81 54 81 C54 98.82 54 116.64 54 135 C45.09 135 36.18 135 27 135 C27 143.91 27 152.82 27 162 C18.09 162 9.18 162 0 162 C0 108.54 0 55.08 0 0 Z " fill="#0B0A07" transform="translate(270,324)"/>
<path d="M0 0 C17.82 0 35.64 0 54 0 C54 8.91 54 17.82 54 27 C45.09 27 36.18 27 27 27 C27 53.73 27 80.46 27 108 C35.91 108 44.82 108 54 108 C54 125.82 54 143.64 54 162 C45.09 162 36.18 162 27 162 C27 153.09 27 144.18 27 135 C18.09 135 9.18 135 0 135 C0 126.09 0 117.18 0 108 C-8.91 108 -17.82 108 -27 108 C-27 81.27 -27 54.54 -27 27 C-18.09 27 -9.18 27 0 27 C0 18.09 0 9.18 0 0 Z " fill="#0B0A07" transform="translate(54,216)"/>
<path d="M0 0 C8.91 0 17.82 0 27 0 C27 35.64 27 71.28 27 108 C0.27 108 -26.46 108 -54 108 C-54 99.09 -54 90.18 -54 81 C-36.18 81 -18.36 81 0 81 C0 72.09 0 63.18 0 54 C-35.64 54 -71.28 54 -108 54 C-108 45.09 -108 36.18 -108 27 C-72.36 27 -36.72 27 0 27 C0 18.09 0 9.18 0 0 Z " fill="#0B0A07" transform="translate(216,324)"/>
<path d="M0 0 C17.82 0 35.64 0 54 0 C54 26.73 54 53.46 54 81 C62.91 81 71.82 81 81 81 C81 89.91 81 98.82 81 108 C89.91 108 98.82 108 108 108 C108 116.91 108 125.82 108 135 C90.18 135 72.36 135 54 135 C54 126.09 54 117.18 54 108 C45.09 108 36.18 108 27 108 C27 99.09 27 90.18 27 81 C18.09 81 9.18 81 0 81 C0 54.27 0 27.54 0 0 Z " fill="#0B0A07" transform="translate(27,81)"/>
<path d="M0 0 C17.82 0 35.64 0 54 0 C54 8.91 54 17.82 54 27 C62.91 27 71.82 27 81 27 C81 35.91 81 44.82 81 54 C72.09 54 63.18 54 54 54 C54 62.91 54 71.82 54 81 C45.09 81 36.18 81 27 81 C27 89.91 27 98.82 27 108 C18.09 108 9.18 108 0 108 C0 72.36 0 36.72 0 0 Z " fill="#0B0A07" transform="translate(216,162)"/>
<path d="M0 0 C35.64 0 71.28 0 108 0 C108 8.91 108 17.82 108 27 C81.27 27 54.54 27 27 27 C27 44.82 27 62.64 27 81 C18.09 81 9.18 81 0 81 C0 54.27 0 27.54 0 0 Z " fill="#F8FAFC" transform="translate(297,378)"/>
<path d="M0 0 C44.55 0 89.1 0 135 0 C135 8.91 135 17.82 135 27 C90.45 27 45.9 27 0 27 C0 18.09 0 9.18 0 0 Z " fill="#F8FAFC" transform="translate(135,486)"/>
<path d="M0 0 C35.64 0 71.28 0 108 0 C108 8.91 108 17.82 108 27 C90.18 27 72.36 27 54 27 C54 35.91 54 44.82 54 54 C45.09 54 36.18 54 27 54 C27 45.09 27 36.18 27 27 C18.09 27 9.18 27 0 27 C0 18.09 0 9.18 0 0 Z " fill="#F8FAFC" transform="translate(108,378)"/>
<path d="M0 0 C35.64 0 71.28 0 108 0 C108 8.91 108 17.82 108 27 C72.36 27 36.72 27 0 27 C0 18.09 0 9.18 0 0 Z " fill="#F8FAFC" transform="translate(297,0)"/>
<path d="M0 0 C35.64 0 71.28 0 108 0 C108 8.91 108 17.82 108 27 C72.36 27 36.72 27 0 27 C0 18.09 0 9.18 0 0 Z " fill="#F8FAFC" transform="translate(108,0)"/>
<path d="M0 0 C8.91 0 17.82 0 27 0 C27 26.73 27 53.46 27 81 C18.09 81 9.18 81 0 81 C0 54.27 0 27.54 0 0 Z " fill="#F8FAFC" transform="translate(459,243)"/>
<path d="M0 0 C8.91 0 17.82 0 27 0 C27 26.73 27 53.46 27 81 C18.09 81 9.18 81 0 81 C0 54.27 0 27.54 0 0 Z " fill="#0B0A07" transform="translate(432,243)"/>
<path d="M0 0 C8.91 0 17.82 0 27 0 C27 26.73 27 53.46 27 81 C18.09 81 9.18 81 0 81 C0 54.27 0 27.54 0 0 Z " fill="#F8FAFC" transform="translate(27,243)"/>
<path d="M0 0 C8.91 0 17.82 0 27 0 C27 26.73 27 53.46 27 81 C18.09 81 9.18 81 0 81 C0 54.27 0 27.54 0 0 Z " fill="#F8FAFC" transform="translate(459,81)"/>
<path d="M0 0 C8.91 0 17.82 0 27 0 C27 26.73 27 53.46 27 81 C18.09 81 9.18 81 0 81 C0 54.27 0 27.54 0 0 Z " fill="#0B0A07" transform="translate(432,81)"/>
<path d="M0 0 C8.91 0 17.82 0 27 0 C27 26.73 27 53.46 27 81 C18.09 81 9.18 81 0 81 C0 54.27 0 27.54 0 0 Z " fill="#F8FAFC" transform="translate(27,81)"/>
<path d="M0 0 C8.91 0 17.82 0 27 0 C27 17.82 27 35.64 27 54 C18.09 54 9.18 54 0 54 C0 36.18 0 18.36 0 0 Z " fill="#F8FAFC" transform="translate(108,432)"/>
<path d="M0 0 C17.82 0 35.64 0 54 0 C54 8.91 54 17.82 54 27 C36.18 27 18.36 27 0 27 C0 18.09 0 9.18 0 0 Z " fill="#0B0A07" transform="translate(54,216)"/>
<path d="M0 0 C17.82 0 35.64 0 54 0 C54 8.91 54 17.82 54 27 C36.18 27 18.36 27 0 27 C0 18.09 0 9.18 0 0 Z " fill="#0B0A07" transform="translate(54,54)"/>
<path d="M0 0 C8.91 0 17.82 0 27 0 C27 8.91 27 17.82 27 27 C18.09 27 9.18 27 0 27 C0 18.09 0 9.18 0 0 Z " fill="#F8FAFC" transform="translate(270,459)"/>
<path d="M0 0 C8.91 0 17.82 0 27 0 C27 8.91 27 17.82 27 27 C18.09 27 9.18 27 0 27 C0 18.09 0 9.18 0 0 Z " fill="#1B9D51" transform="translate(162,432)"/>
<path d="M0 0 C8.91 0 17.82 0 27 0 C27 8.91 27 17.82 27 27 C18.09 27 9.18 27 0 27 C0 18.09 0 9.18 0 0 Z " fill="#F8FAFC" transform="translate(405,351)"/>
<path d="M0 0 C8.91 0 17.82 0 27 0 C27 8.91 27 17.82 27 27 C18.09 27 9.18 27 0 27 C0 18.09 0 9.18 0 0 Z " fill="#F8FAFC" transform="translate(81,351)"/>
<path d="M0 0 C8.91 0 17.82 0 27 0 C27 8.91 27 17.82 27 27 C18.09 27 9.18 27 0 27 C0 18.09 0 9.18 0 0 Z " fill="#F8FAFC" transform="translate(432,324)"/>
<path d="M0 0 C8.91 0 17.82 0 27 0 C27 8.91 27 17.82 27 27 C18.09 27 9.18 27 0 27 C0 18.09 0 9.18 0 0 Z " fill="#0B0A07" transform="translate(405,324)"/>
<path d="M0 0 C8.91 0 17.82 0 27 0 C27 8.91 27 17.82 27 27 C18.09 27 9.18 27 0 27 C0 18.09 0 9.18 0 0 Z " fill="#0B0A07" transform="translate(81,324)"/>
<path d="M0 0 C8.91 0 17.82 0 27 0 C27 8.91 27 17.82 27 27 C18.09 27 9.18 27 0 27 C0 18.09 0 9.18 0 0 Z " fill="#F8FAFC" transform="translate(54,324)"/>
<path d="M0 0 C8.91 0 17.82 0 27 0 C27 8.91 27 17.82 27 27 C18.09 27 9.18 27 0 27 C0 18.09 0 9.18 0 0 Z " fill="#0B0A07" transform="translate(270,243)"/>
<path d="M0 0 C8.91 0 17.82 0 27 0 C27 8.91 27 17.82 27 27 C18.09 27 9.18 27 0 27 C0 18.09 0 9.18 0 0 Z " fill="#F8FAFC" transform="translate(432,216)"/>
<path d="M0 0 C8.91 0 17.82 0 27 0 C27 8.91 27 17.82 27 27 C18.09 27 9.18 27 0 27 C0 18.09 0 9.18 0 0 Z " fill="#0B0A07" transform="translate(405,216)"/>
<path d="M0 0 C8.91 0 17.82 0 27 0 C27 8.91 27 17.82 27 27 C18.09 27 9.18 27 0 27 C0 18.09 0 9.18 0 0 Z " fill="#F8FAFC" transform="translate(54,216)"/>
<path d="M0 0 C8.91 0 17.82 0 27 0 C27 8.91 27 17.82 27 27 C18.09 27 9.18 27 0 27 C0 18.09 0 9.18 0 0 Z " fill="#F8FAFC" transform="translate(405,189)"/>
<path d="M0 0 C8.91 0 17.82 0 27 0 C27 8.91 27 17.82 27 27 C18.09 27 9.18 27 0 27 C0 18.09 0 9.18 0 0 Z " fill="#0B0A07" transform="translate(378,189)"/>
<path d="M0 0 C8.91 0 17.82 0 27 0 C27 8.91 27 17.82 27 27 C18.09 27 9.18 27 0 27 C0 18.09 0 9.18 0 0 Z " fill="#0B0A07" transform="translate(270,189)"/>
<path d="M0 0 C8.91 0 17.82 0 27 0 C27 8.91 27 17.82 27 27 C18.09 27 9.18 27 0 27 C0 18.09 0 9.18 0 0 Z " fill="#1B9D51" transform="translate(243,189)"/>
<path d="M0 0 C8.91 0 17.82 0 27 0 C27 8.91 27 17.82 27 27 C18.09 27 9.18 27 0 27 C0 18.09 0 9.18 0 0 Z " fill="#0B0A07" transform="translate(108,189)"/>
<path d="M0 0 C8.91 0 17.82 0 27 0 C27 8.91 27 17.82 27 27 C18.09 27 9.18 27 0 27 C0 18.09 0 9.18 0 0 Z " fill="#F8FAFC" transform="translate(81,189)"/>
<path d="M0 0 C8.91 0 17.82 0 27 0 C27 8.91 27 17.82 27 27 C18.09 27 9.18 27 0 27 C0 18.09 0 9.18 0 0 Z " fill="#F8FAFC" transform="translate(432,162)"/>
<path d="M0 0 C8.91 0 17.82 0 27 0 C27 8.91 27 17.82 27 27 C18.09 27 9.18 27 0 27 C0 18.09 0 9.18 0 0 Z " fill="#0B0A07" transform="translate(405,162)"/>
<path d="M0 0 C8.91 0 17.82 0 27 0 C27 8.91 27 17.82 27 27 C18.09 27 9.18 27 0 27 C0 18.09 0 9.18 0 0 Z " fill="#0B0A07" transform="translate(81,162)"/>
<path d="M0 0 C8.91 0 17.82 0 27 0 C27 8.91 27 17.82 27 27 C18.09 27 9.18 27 0 27 C0 18.09 0 9.18 0 0 Z " fill="#F8FAFC" transform="translate(54,162)"/>
<path d="M0 0 C8.91 0 17.82 0 27 0 C27 8.91 27 17.82 27 27 C18.09 27 9.18 27 0 27 C0 18.09 0 9.18 0 0 Z " fill="#0B0A07" transform="translate(243,81)"/>
<path d="M0 0 C8.91 0 17.82 0 27 0 C27 8.91 27 17.82 27 27 C18.09 27 9.18 27 0 27 C0 18.09 0 9.18 0 0 Z " fill="#F8FAFC" transform="translate(432,54)"/>
<path d="M0 0 C8.91 0 17.82 0 27 0 C27 8.91 27 17.82 27 27 C18.09 27 9.18 27 0 27 C0 18.09 0 9.18 0 0 Z " fill="#0B0A07" transform="translate(405,54)"/>
<path d="M0 0 C8.91 0 17.82 0 27 0 C27 8.91 27 17.82 27 27 C18.09 27 9.18 27 0 27 C0 18.09 0 9.18 0 0 Z " fill="#0B0A07" transform="translate(270,54)"/>
<path d="M0 0 C8.91 0 17.82 0 27 0 C27 8.91 27 17.82 27 27 C18.09 27 9.18 27 0 27 C0 18.09 0 9.18 0 0 Z " fill="#F8FAFC" transform="translate(243,54)"/>
<path d="M0 0 C8.91 0 17.82 0 27 0 C27 8.91 27 17.82 27 27 C18.09 27 9.18 27 0 27 C0 18.09 0 9.18 0 0 Z " fill="#0B0A07" transform="translate(216,54)"/>
<path d="M0 0 C8.91 0 17.82 0 27 0 C27 8.91 27 17.82 27 27 C18.09 27 9.18 27 0 27 C0 18.09 0 9.18 0 0 Z " fill="#F8FAFC" transform="translate(54,54)"/>
<path d="M0 0 C8.91 0 17.82 0 27 0 C27 8.91 27 17.82 27 27 C18.09 27 9.18 27 0 27 C0 18.09 0 9.18 0 0 Z " fill="#F8FAFC" transform="translate(405,27)"/>
<path d="M0 0 C8.91 0 17.82 0 27 0 C27 8.91 27 17.82 27 27 C18.09 27 9.18 27 0 27 C0 18.09 0 9.18 0 0 Z " fill="#F8FAFC" transform="translate(270,27)"/>
<path d="M0 0 C8.91 0 17.82 0 27 0 C27 8.91 27 17.82 27 27 C18.09 27 9.18 27 0 27 C0 18.09 0 9.18 0 0 Z " fill="#F8FAFC" transform="translate(216,27)"/>
<path d="M0 0 C8.91 0 17.82 0 27 0 C27 8.91 27 17.82 27 27 C18.09 27 9.18 27 0 27 C0 18.09 0 9.18 0 0 Z " fill="#F8FAFC" transform="translate(81,27)"/>
</svg>
